<?xml version="1.0" encoding="UTF-8" ?>
<!DOCTYPE svg PUBLIC "-//W3C//DTD SVG 1.1//EN" "http://www.w3.org/Graphics/SVG/1.1/DTD/svg11.dtd">
<svg width="200pt" height="200pt" viewBox="0 0 200 200" version="1.1" xmlns="http://www.w3.org/2000/svg">
<g id="#fefffeff">
<path fill="#fefffe" opacity="1.00" d=" M 0.00 0.00 L 200.00 0.00 L 200.00 200.00 L 0.00 200.00 L 0.00 0.00 M 69.29 16.28 C 66.90 20.45 76.52 27.36 75.19 32.16 C 61.66 39.39 50.93 54.19 52.00 69.95 C 84.02 70.04 116.03 70.04 148.05 69.94 C 147.51 53.97 137.89 39.44 123.95 31.81 C 125.22 26.06 130.36 21.76 131.06 15.96 C 124.27 16.07 124.97 27.60 119.98 29.96 C 107.20 24.93 92.70 24.62 79.91 29.83 C 74.28 29.02 74.84 16.70 69.29 16.28 M 34.37 72.34 C 27.08 74.04 25.11 82.53 25.95 88.99 C 26.71 102.95 24.60 117.40 26.99 131.05 C 29.80 141.23 45.96 140.03 47.67 129.71 C 48.69 115.21 47.62 100.53 48.02 85.97 C 49.43 78.63 42.53 69.21 34.37 72.34 M 159.37 72.34 C 154.06 73.62 151.10 78.78 150.99 83.97 C 150.99 97.31 150.90 110.66 151.06 124.00 C 150.81 129.10 152.64 135.13 157.63 137.40 C 163.74 140.12 171.37 136.26 172.65 129.65 C 173.40 114.78 172.92 99.88 172.94 85.00 C 174.33 77.56 166.98 69.55 159.37 72.34 M 52.07 74.05 C 51.96 98.00 51.90 121.95 52.10 145.90 C 53.68 154.73 63.57 155.90 70.94 155.11 C 71.18 163.70 70.79 172.31 71.08 180.91 C 72.43 188.89 83.01 191.95 88.78 186.78 C 96.64 178.54 89.61 165.07 92.06 155.05 C 95.77 155.04 103.20 155.04 106.92 155.04 C 107.33 164.24 106.57 173.47 107.29 182.68 C 109.67 189.57 119.52 191.39 124.78 186.78 C 132.63 178.56 125.62 165.14 128.05 155.14 C 135.08 155.58 144.73 155.33 146.89 146.93 C 147.15 122.65 146.99 98.35 146.94 74.06 C 115.32 73.94 83.69 73.97 52.07 74.05 Z" />
<path fill="#fefffe" opacity="1.00" d=" M 76.26 45.19 C 81.14 42.97 84.33 50.61 79.36 52.42 C 74.79 55.19 71.62 47.13 76.26 45.19 Z" />
<path fill="#fefffe" opacity="1.00" d=" M 119.25 45.11 C 124.89 41.72 127.25 49.98 123.29 52.31 C 119.49 55.39 115.11 47.35 119.25 45.11 Z" />
</g>
<g id="#a6c63cff">
<path fill="#a6c63c" opacity="1.00" d=" M 69.29 16.28 C 74.84 16.70 74.28 29.02 79.91 29.83 C 92.70 24.62 107.20 24.93 119.98 29.96 C 124.97 27.60 124.27 16.07 131.06 15.96 C 130.36 21.76 125.22 26.06 123.95 31.81 C 137.89 39.44 147.51 53.97 148.05 69.94 C 116.03 70.04 84.02 70.04 52.00 69.95 C 50.93 54.19 61.66 39.39 75.19 32.16 C 76.52 27.36 66.90 20.45 69.29 16.28 M 76.26 45.19 C 71.62 47.13 74.79 55.19 79.36 52.42 C 84.33 50.61 81.14 42.97 76.26 45.19 M 119.25 45.11 C 115.11 47.35 119.49 55.39 123.29 52.31 C 127.25 49.98 124.89 41.72 119.25 45.11 Z" />
<path fill="#a6c63c" opacity="1.00" d=" M 34.37 72.34 C 42.53 69.21 49.43 78.63 48.02 85.97 C 47.62 100.53 48.69 115.21 47.67 129.71 C 45.96 140.03 29.80 141.23 26.99 131.05 C 24.60 117.40 26.71 102.95 25.95 88.99 C 25.11 82.53 27.08 74.04 34.37 72.34 Z" />
<path fill="#a6c63c" opacity="1.00" d=" M 159.37 72.34 C 166.98 69.55 174.33 77.56 172.94 85.00 C 172.92 99.88 173.40 114.78 172.65 129.65 C 171.37 136.26 163.74 140.12 157.63 137.40 C 152.64 135.13 150.81 129.10 151.06 124.00 C 150.90 110.66 150.99 97.31 150.99 83.97 C 151.10 78.78 154.06 73.62 159.37 72.34 Z" />
<path fill="#a6c63c" opacity="1.00" d=" M 52.07 74.05 C 83.69 73.97 115.32 73.94 146.94 74.06 C 146.99 98.35 147.15 122.65 146.89 146.93 C 144.73 155.33 135.08 155.58 128.05 155.14 C 125.62 165.14 132.63 178.56 124.78 186.78 C 119.52 191.39 109.67 189.57 107.29 182.68 C 106.57 173.47 107.33 164.24 106.92 155.04 C 103.20 155.04 95.77 155.04 92.06 155.05 C 89.61 165.07 96.64 178.54 88.78 186.78 C 83.01 191.95 72.43 188.89 71.08 180.91 C 70.79 172.31 71.18 163.70 70.94 155.11 C 63.57 155.90 53.68 154.73 52.10 145.90 C 51.90 121.95 51.96 98.00 52.07 74.05 Z" />
</g>
</svg>
